<?xml version="1.0" encoding="UTF-8"?>
<svg xmlns="http://www.w3.org/2000/svg" width="327.0mm" height="122.34970000000001mm" viewBox="15.5 63.0 327.0 122.34970000000001">
  <defs>
    <style>
      .key { fill: #161b22; stroke: #58a6ff; stroke-width: 0.5px; rx: 2.61px; ry: 2.61px; }
      .key-inner { fill: none; stroke: #58a6ff; stroke-width: 0.28px; rx: 0.95px; ry: 0.95px; }
    </style>
  </defs>
  <g id="Shape">
  <!-- You could place the PCB outline here if available -->
  </g>
  <g id="Keycaps">
    <rect class="key" x="132.25" y="140.25" width="17.5" height="17.5"  />
    <rect class="key-inner" x="135.0" y="143.0" width="12" height="12"  />
    <rect class="key" x="16.75" y="73.25" width="17.5" height="17.5"  />
    <rect class="key-inner" x="19.5" y="76.0" width="12" height="12"  />
    <rect class="key" x="54.75" y="67.75" width="17.5" height="17.5"  />
    <rect class="key-inner" x="57.5" y="70.5" width="12" height="12"  />
    <rect class="key" x="92.75" y="70.75" width="17.5" height="17.5"  />
    <rect class="key-inner" x="95.5" y="73.5" width="12" height="12"  />
    <rect class="key" x="131.2014" y="166.5997" width="17.5" height="17.5" transform="rotate(-60, 139.9514, 175.3497)" />
    <rect class="key-inner" x="133.9514" y="169.3497" width="12" height="12" transform="rotate(-60, 139.9514, 175.3497)" />
    <rect class="key" x="35.75" y="109.75" width="17.5" height="17.5"  />
    <rect class="key-inner" x="38.5" y="112.5" width="12" height="12"  />
    <rect class="key" x="96.094" y="152.0577" width="17.5" height="17.5" transform="rotate(-15, 104.844, 160.8077)" />
    <rect class="key-inner" x="98.844" y="154.8077" width="12" height="12" transform="rotate(-15, 104.844, 160.8077)" />
    <rect class="key" x="35.75" y="128.75" width="17.5" height="17.5"  />
    <rect class="key-inner" x="38.5" y="131.5" width="12" height="12"  />
    <rect class="key" x="16.75" y="92.25" width="17.5" height="17.5"  />
    <rect class="key-inner" x="19.5" y="95.0" width="12" height="12"  />
    <rect class="key" x="111.75" y="131.5375" width="17.5" height="17.5"  />
    <rect class="key-inner" x="114.5" y="134.2875" width="12" height="12"  />
    <rect class="key" x="16.75" y="111.25" width="17.5" height="17.5"  />
    <rect class="key-inner" x="19.5" y="114.0" width="12" height="12"  />
    <rect class="key" x="16.75" y="130.25" width="17.5" height="17.5"  />
    <rect class="key-inner" x="19.5" y="133.0" width="12" height="12"  />
    <rect class="key" x="54.75" y="124.75" width="17.5" height="17.5"  />
    <rect class="key-inner" x="57.5" y="127.5" width="12" height="12"  />
    <rect class="key" x="41.25" y="149.25" width="17.5" height="17.5"  />
    <rect class="key-inner" x="44.0" y="152.0" width="12" height="12"  />
    <rect class="key" x="73.75" y="102.25" width="17.5" height="17.5"  />
    <rect class="key-inner" x="76.5" y="105.0" width="12" height="12"  />
    <rect class="key" x="111.75" y="112.25" width="17.5" height="17.5"  />
    <rect class="key-inner" x="114.5" y="115.0" width="12" height="12"  />
    <rect class="key" x="114.5087" y="157.25" width="17.5" height="17.5" transform="rotate(-30, 123.2587, 166.0)" />
    <rect class="key-inner" x="117.2587" y="160.0" width="12" height="12" transform="rotate(-30, 123.2587, 166.0)" />
    <rect class="key" x="73.75" y="121.25" width="17.5" height="17.5"  />
    <rect class="key-inner" x="76.5" y="124.0" width="12" height="12"  />
    <rect class="key" x="111.75" y="93.25" width="17.5" height="17.5"  />
    <rect class="key-inner" x="114.5" y="96.0" width="12" height="12"  />
    <rect class="key" x="73.75" y="64.25" width="17.5" height="17.5"  />
    <rect class="key-inner" x="76.5" y="67.0" width="12" height="12"  />
    <rect class="key" x="54.75" y="86.75" width="17.5" height="17.5"  />
    <rect class="key-inner" x="57.5" y="89.5" width="12" height="12"  />
    <rect class="key" x="35.75" y="90.75" width="17.5" height="17.5"  />
    <rect class="key-inner" x="38.5" y="93.5" width="12" height="12"  />
    <rect class="key" x="92.75" y="108.75" width="17.5" height="17.5"  />
    <rect class="key-inner" x="95.5" y="111.5" width="12" height="12"  />
    <rect class="key" x="35.75" y="71.75" width="17.5" height="17.5"  />
    <rect class="key-inner" x="38.5" y="74.5" width="12" height="12"  />
    <rect class="key" x="54.75" y="105.75" width="17.5" height="17.5"  />
    <rect class="key-inner" x="57.5" y="108.5" width="12" height="12"  />
    <rect class="key" x="92.75" y="89.75" width="17.5" height="17.5"  />
    <rect class="key-inner" x="95.5" y="92.5" width="12" height="12"  />
    <rect class="key" x="111.75" y="74.25" width="17.5" height="17.5"  />
    <rect class="key-inner" x="114.5" y="77.0" width="12" height="12"  />
    <rect class="key" x="22.25" y="149.25" width="17.5" height="17.5"  />
    <rect class="key-inner" x="25.0" y="152.0" width="12" height="12"  />
    <rect class="key" x="92.75" y="128.0375" width="17.5" height="17.5"  />
    <rect class="key-inner" x="95.5" y="130.7875" width="12" height="12"  />
    <rect class="key" x="73.75" y="83.2561" width="17.5" height="17.5"  />
    <rect class="key-inner" x="76.5" y="86.0061" width="12" height="12"  />
    <rect class="key" x="228.75" y="131.5375" width="17.5" height="17.5"  />
    <rect class="key-inner" x="231.5" y="134.2875" width="12" height="12"  />
    <rect class="key" x="228.75" y="74.25" width="17.5" height="17.5"  />
    <rect class="key-inner" x="231.5" y="77.0" width="12" height="12"  />
    <rect class="key" x="323.75" y="92.25" width="17.5" height="17.5"  />
    <rect class="key-inner" x="326.5" y="95.0" width="12" height="12"  />
    <rect class="key" x="228.75" y="112.25" width="17.5" height="17.5"  />
    <rect class="key-inner" x="231.5" y="115.0" width="12" height="12"  />
    <rect class="key" x="285.75" y="67.75" width="17.5" height="17.5"  />
    <rect class="key-inner" x="288.5" y="70.5" width="12" height="12"  />
    <rect class="key" x="266.75" y="83.2561" width="17.5" height="17.5"  />
    <rect class="key-inner" x="269.5" y="86.0061" width="12" height="12"  />
    <rect class="key" x="318.25" y="149.25" width="17.5" height="17.5"  />
    <rect class="key-inner" x="321.0" y="152.0" width="12" height="12"  />
    <rect class="key" x="247.75" y="108.75" width="17.5" height="17.5"  />
    <rect class="key-inner" x="250.5" y="111.5" width="12" height="12"  />
    <rect class="key" x="208.25" y="140.25" width="17.5" height="17.5"  />
    <rect class="key-inner" x="211.0" y="143.0" width="12" height="12"  />
    <rect class="key" x="323.75" y="73.25" width="17.5" height="17.5"  />
    <rect class="key-inner" x="326.5" y="76.0" width="12" height="12"  />
    <rect class="key" x="247.75" y="128.0375" width="17.5" height="17.5"  />
    <rect class="key-inner" x="250.5" y="130.7875" width="12" height="12"  />
    <rect class="key" x="266.75" y="102.25" width="17.5" height="17.5"  />
    <rect class="key-inner" x="269.5" y="105.0" width="12" height="12"  />
    <rect class="key" x="266.75" y="64.25" width="17.5" height="17.5"  />
    <rect class="key-inner" x="269.5" y="67.0" width="12" height="12"  />
    <rect class="key" x="285.75" y="86.75" width="17.5" height="17.5"  />
    <rect class="key-inner" x="288.5" y="89.5" width="12" height="12"  />
    <rect class="key" x="247.75" y="70.75" width="17.5" height="17.5"  />
    <rect class="key-inner" x="250.5" y="73.5" width="12" height="12"  />
    <rect class="key" x="247.75" y="89.75" width="17.5" height="17.5"  />
    <rect class="key-inner" x="250.5" y="92.5" width="12" height="12"  />
    <rect class="key" x="304.75" y="128.75" width="17.5" height="17.5"  />
    <rect class="key-inner" x="307.5" y="131.5" width="12" height="12"  />
    <rect class="key" x="285.75" y="124.75" width="17.5" height="17.5"  />
    <rect class="key-inner" x="288.5" y="127.5" width="12" height="12"  />
    <rect class="key" x="266.75" y="121.25" width="17.5" height="17.5"  />
    <rect class="key-inner" x="269.5" y="124.0" width="12" height="12"  />
    <rect class="key" x="209.2986" y="166.5997" width="17.5" height="17.5"  />
    <rect class="key-inner" x="212.0486" y="169.3497" width="12" height="12"  />
    <rect class="key" x="323.75" y="111.25" width="17.5" height="17.5"  />
    <rect class="key-inner" x="326.5" y="114.0" width="12" height="12"  />
    <rect class="key" x="304.75" y="90.75" width="17.5" height="17.5"  />
    <rect class="key-inner" x="307.5" y="93.5" width="12" height="12"  />
    <rect class="key" x="225.9913" y="157.25" width="17.5" height="17.5"  />
    <rect class="key-inner" x="228.7413" y="160.0" width="12" height="12"  />
    <rect class="key" x="304.75" y="71.75" width="17.5" height="17.5"  />
    <rect class="key-inner" x="307.5" y="74.5" width="12" height="12"  />
    <rect class="key" x="244.406" y="152.0577" width="17.5" height="17.5"  />
    <rect class="key-inner" x="247.156" y="154.8077" width="12" height="12"  />
    <rect class="key" x="323.75" y="130.25" width="17.5" height="17.5"  />
    <rect class="key-inner" x="326.5" y="133.0" width="12" height="12"  />
    <rect class="key" x="304.75" y="109.75" width="17.5" height="17.5"  />
    <rect class="key-inner" x="307.5" y="112.5" width="12" height="12"  />
    <rect class="key" x="228.75" y="93.25" width="17.5" height="17.5"  />
    <rect class="key-inner" x="231.5" y="96.0" width="12" height="12"  />
    <rect class="key" x="299.25" y="149.25" width="17.5" height="17.5"  />
    <rect class="key-inner" x="302.0" y="152.0" width="12" height="12"  />
    <rect class="key" x="285.75" y="105.75" width="17.5" height="17.5"  />
    <rect class="key-inner" x="288.5" y="108.5" width="12" height="12"  />
  </g>
</svg>
